<svg xmlns="http://www.w3.org/2000/svg" xmlns:xlink="http://www.w3.org/1999/xlink" width="500" zoomAndPan="magnify" viewBox="0 0 375 374.999991" height="500" preserveAspectRatio="xMidYMid meet" version="1.0"><defs><clipPath id="f0e8a65320"><path d="M 0 50.15625 L 370 50.15625 L 370 320 L 0 320 Z M 0 50.15625 " clip-rule="nonzero"/></clipPath></defs><g clip-path="url(#f0e8a65320)"><path fill="#db99a8" d="M 301.925781 286.804688 C 291.191406 275.535156 259.335938 257.867188 240.539062 247.539062 C 240.289062 247.398438 240 247.410156 239.761719 247.566406 L 199.96875 273.195312 C 199.496094 273.5 199.5 274.1875 199.980469 274.484375 C 203.785156 276.820312 207.566406 279.121094 211.304688 281.375 C 227.78125 291.300781 264.671875 314.394531 282.324219 319.035156 C 304.105469 324.765625 317.589844 303.25 301.925781 286.804688 Z M 217.960938 50.253906 C 239.933594 50.253906 257.746094 68.066406 257.746094 90.039062 C 257.746094 126.03125 220.085938 167.015625 188.355469 181.175781 C 188.148438 181.269531 187.9375 181.269531 187.734375 181.175781 C 156.003906 167.015625 118.34375 126.027344 118.34375 90.039062 C 118.34375 68.066406 136.152344 50.253906 158.125 50.253906 C 169.753906 50.253906 180.210938 55.242188 187.484375 63.191406 C 187.785156 63.523438 188.304688 63.523438 188.605469 63.191406 C 195.878906 55.242188 206.335938 50.253906 217.960938 50.253906 Z M 74.160156 286.804688 C 86.40625 273.949219 126.148438 252.757812 142.621094 243.644531 C 156.4375 236.003906 171.074219 228.222656 185.539062 220.722656 C 228.941406 198.214844 270.769531 178.242188 284.113281 172.152344 C 284.410156 172.015625 284.578125 171.726562 284.554688 171.40625 C 283.5 156.566406 292.535156 140.441406 308.617188 131.15625 C 329.714844 118.976562 354.945312 123.183594 364.976562 140.550781 C 375.003906 157.921875 366.03125 181.878906 344.933594 194.058594 C 328.839844 203.351562 310.339844 203.105469 298.019531 194.753906 C 297.75 194.570312 297.414062 194.578125 297.152344 194.761719 C 285.273438 203.222656 247.507812 229.15625 206.644531 255.304688 C 192.75 264.195312 178.496094 273.113281 164.78125 281.375 C 148.304688 291.300781 111.414062 314.390625 93.761719 319.035156 C 71.984375 324.765625 58.496094 303.246094 74.160156 286.804688 Z M 36.484375 125.488281 L 71.046875 145.441406 C 71.410156 145.648438 71.535156 146.117188 71.324219 146.480469 L 62.0625 162.523438 C 61.851562 162.886719 61.382812 163.011719 61.019531 162.804688 L 25.0625 142.042969 C 22.339844 140.476562 18.863281 141.417969 17.300781 144.140625 C 15.734375 146.863281 16.675781 150.335938 19.398438 151.902344 L 55.335938 172.648438 C 55.699219 172.859375 55.824219 173.328125 55.613281 173.6875 L 46.332031 189.765625 C 46.125 190.128906 45.65625 190.253906 45.292969 190.042969 L 9.359375 169.296875 C 6.636719 167.71875 3.152344 168.648438 1.574219 171.371094 C 0 174.09375 0.925781 177.578125 3.648438 179.15625 L 40.257812 200.289062 C 53.769531 208.089844 70.140625 206.441406 81.726562 197.394531 C 81.992188 197.183594 82.351562 197.175781 82.628906 197.371094 C 92.863281 204.546875 112.59375 218.070312 136.109375 233.613281 C 136.347656 233.769531 136.632812 233.785156 136.886719 233.648438 L 174.179688 213.652344 C 174.722656 213.363281 174.714844 212.582031 174.164062 212.304688 C 140.691406 195.253906 110.304688 180.664062 96.082031 174.046875 C 95.773438 173.902344 95.601562 173.589844 95.648438 173.25 C 97.695312 158.570312 90.746094 143.617188 77.417969 135.921875 L 77.402344 135.953125 L 42.195312 115.628906 C 39.472656 114.050781 35.988281 114.980469 34.410156 117.703125 C 32.835938 120.425781 33.761719 123.910156 36.484375 125.488281 Z M 36.484375 125.488281 " fill-opacity="1" fill-rule="evenodd"/></g></svg>