<svg xmlns="http://www.w3.org/2000/svg" xmlns:xlink="http://www.w3.org/1999/xlink" width="500" zoomAndPan="magnify" viewBox="0 0 375 374.999991" height="500" preserveAspectRatio="xMidYMid meet" version="1.0"><defs><clipPath id="665fc3eb87"><path d="M 39.410156 39.410156 L 335.660156 39.410156 L 335.660156 335.660156 L 39.410156 335.660156 Z M 39.410156 39.410156 " clip-rule="nonzero"/></clipPath></defs><g clip-path="url(#665fc3eb87)"><path fill="#db99a8" d="M 335.460938 229.136719 L 335.460938 228.957031 C 335.460938 228.898438 335.402344 228.839844 335.402344 228.78125 C 333.148438 173.101562 299.980469 125.238281 252.652344 101.960938 L 252.652344 45.332031 C 252.652344 42.074219 249.984375 39.410156 246.726562 39.410156 L 128.261719 39.410156 C 125.003906 39.410156 122.335938 42.074219 122.335938 45.332031 L 122.335938 101.960938 C 75.011719 125.238281 41.839844 173.101562 39.589844 228.78125 C 39.589844 228.839844 39.527344 228.898438 39.527344 228.957031 L 39.527344 229.136719 C 39.46875 231.03125 39.410156 232.925781 39.410156 234.882812 L 39.410156 329.65625 C 39.410156 332.914062 42.074219 335.578125 45.332031 335.578125 L 329.65625 335.578125 C 332.914062 335.578125 335.578125 332.914062 335.578125 329.65625 L 335.578125 234.882812 C 335.578125 232.925781 335.519531 231.03125 335.460938 229.136719 Z M 323.199219 223.035156 L 299.386719 223.035156 C 296.722656 197.328125 285.289062 174.226562 268.230469 156.632812 L 284.992188 139.871094 C 306.316406 161.726562 320.414062 190.8125 323.199219 223.035156 Z M 191.699219 242.523438 C 189.390625 240.210938 185.597656 240.210938 183.289062 242.523438 C 182.578125 243.234375 165.757812 260.292969 165.757812 278.300781 C 165.757812 279.722656 165.933594 281.082031 166.171875 282.445312 C 150.769531 273.621094 140.109375 255.671875 140.109375 234.882812 C 140.109375 207.277344 158.824219 184.53125 182.757812 181.808594 C 182.519531 182.578125 182.339844 183.289062 182.164062 184.058594 C 179.558594 195.847656 179.734375 207.632812 182.816406 217.230469 C 186.25 227.949219 192.824219 234.882812 201.296875 236.835938 C 212.550781 239.382812 224.398438 232.273438 232.691406 219.007812 C 234.171875 224.101562 234.882812 229.429688 234.882812 234.882812 C 234.882812 255.671875 224.21875 273.621094 208.820312 282.445312 C 209.054688 281.082031 209.234375 279.722656 209.234375 278.300781 C 209.234375 260.292969 192.410156 243.234375 191.699219 242.523438 Z M 197.386719 278.300781 C 197.386719 283.75 192.945312 288.191406 187.496094 288.191406 C 182.046875 288.191406 177.601562 283.75 177.601562 278.300781 C 177.601562 270.363281 183.050781 261.476562 187.496094 255.789062 C 191.9375 261.476562 197.386719 270.363281 197.386719 278.300781 Z M 246.726562 234.882812 C 246.726562 223.09375 243.824219 211.605469 238.378906 201.59375 C 235.976562 197.183594 229.261719 197.675781 227.597656 202.421875 C 222.207031 217.289062 212.078125 227.121094 203.902344 225.226562 C 198.214844 223.980469 195.3125 217.40625 194.128906 213.617188 C 191.699219 206.035156 191.523438 196.4375 193.714844 186.664062 C 194.425781 183.703125 195.3125 180.800781 196.4375 177.957031 C 197.925781 174.242188 195.203125 170.039062 191.226562 169.84375 C 190.042969 169.785156 188.796875 169.722656 187.496094 169.722656 C 154.855469 169.722656 128.261719 198.925781 128.261719 234.882812 C 128.261719 256.917969 138.269531 276.402344 153.554688 288.191406 L 86.796875 288.191406 L 86.796875 234.882812 C 86.796875 179.378906 131.992188 134.183594 187.496094 134.183594 C 242.996094 134.183594 288.191406 179.378906 288.191406 234.882812 L 288.191406 288.191406 L 221.433594 288.191406 C 236.71875 276.402344 246.726562 256.917969 246.726562 234.882812 Z M 276.34375 131.753906 L 259.523438 148.519531 C 241.457031 133.414062 218.472656 123.9375 193.417969 122.632812 L 193.417969 98.820312 C 225.046875 100.183594 253.894531 112.328125 276.34375 131.753906 Z M 134.183594 51.257812 L 240.804688 51.257812 L 240.804688 96.75 C 224.277344 90.351562 206.269531 86.796875 187.496094 86.796875 C 168.71875 86.796875 150.710938 90.351562 134.183594 96.75 Z M 181.570312 98.820312 L 181.570312 122.632812 C 156.515625 123.9375 133.53125 133.414062 115.464844 148.519531 L 98.644531 131.753906 C 121.09375 112.328125 149.941406 100.183594 181.570312 98.820312 Z M 89.996094 139.871094 L 106.757812 156.632812 C 89.699219 174.226562 78.269531 197.328125 75.601562 223.035156 L 51.789062 223.035156 C 54.574219 190.8125 68.671875 161.726562 89.996094 139.871094 Z M 51.257812 234.882812 L 74.949219 234.882812 L 74.949219 288.191406 L 51.257812 288.191406 Z M 323.730469 323.730469 L 51.257812 323.730469 L 51.257812 300.039062 L 323.730469 300.039062 Z M 323.730469 288.191406 L 300.039062 288.191406 L 300.039062 234.882812 L 323.730469 234.882812 Z M 323.730469 288.191406 " fill-opacity="1" fill-rule="nonzero"/></g></svg>