<svg xmlns="http://www.w3.org/2000/svg" xmlns:xlink="http://www.w3.org/1999/xlink" width="500" zoomAndPan="magnify" viewBox="0 0 375 374.999991" height="500" preserveAspectRatio="xMidYMid meet" version="1.0"><defs><clipPath id="b527939be5"><path d="M 57.003906 57.003906 L 246 57.003906 L 246 268 L 57.003906 268 Z M 57.003906 57.003906 " clip-rule="nonzero"/></clipPath><clipPath id="c9a8930bc2"><path d="M 57.003906 257 L 279 257 L 279 318 L 57.003906 318 Z M 57.003906 257 " clip-rule="nonzero"/></clipPath></defs><g clip-path="url(#b527939be5)"><path fill="#db99a8" d="M 74.40625 100.503906 L 74.40625 83.105469 C 74.40625 73.511719 82.210938 65.703125 91.804688 65.703125 L 189.8125 65.703125 C 185.671875 70.324219 183.148438 76.425781 183.148438 83.105469 L 183.148438 100.503906 C 183.148438 103.671875 184 106.640625 185.484375 109.203125 L 83.105469 109.203125 C 78.304688 109.203125 74.40625 105.300781 74.40625 100.503906 Z M 209.25 91.804688 L 209.25 100.503906 C 209.25 105.300781 205.34375 109.203125 200.550781 109.203125 C 195.753906 109.203125 191.847656 105.300781 191.847656 100.503906 L 191.847656 91.804688 Z M 67.316406 263.996094 C 66.246094 261.644531 65.703125 259.148438 65.703125 256.566406 L 65.703125 251.273438 C 65.703125 205.894531 72.832031 161.035156 86.882812 117.902344 L 182.132812 117.902344 C 178.136719 130.453125 174.675781 143.277344 171.832031 156.109375 L 180.324219 157.992188 C 183.316406 144.515625 187.003906 131.046875 191.28125 117.902344 L 200.550781 117.902344 C 210.144531 117.902344 217.949219 110.097656 217.949219 100.503906 L 217.949219 87.453125 C 217.949219 85.050781 216 83.105469 213.597656 83.105469 L 191.847656 83.105469 C 191.847656 73.511719 199.65625 65.703125 209.25 65.703125 L 210.035156 65.703125 C 217.859375 65.703125 224.765625 70.976562 226.820312 78.523438 L 233.222656 101.996094 C 234.742188 107.5625 236.167969 113.242188 237.460938 118.878906 L 245.941406 116.925781 C 244.621094 111.179688 243.164062 105.386719 241.613281 99.707031 L 235.214844 76.238281 C 232.128906 64.914062 221.773438 57.003906 210.035156 57.003906 L 91.804688 57.003906 C 77.410156 57.003906 65.703125 68.710938 65.703125 83.105469 L 65.703125 100.503906 C 65.703125 108.316406 70.882812 114.941406 77.984375 117.132812 C 64.0625 160.542969 57.003906 205.652344 57.003906 251.273438 L 57.003906 256.566406 C 57.003906 260.398438 57.808594 264.109375 59.398438 267.597656 L 67.316406 263.996094 " fill-opacity="1" fill-rule="nonzero"/></g><path fill="#db99a8" d="M 275.484375 172.542969 L 273.503906 181.011719 C 299.921875 187.191406 309.292969 195.398438 309.292969 200.550781 C 309.292969 204.976562 303.007812 210.117188 291.386719 214.65625 C 289.355469 208.1875 281.183594 202.839844 267.007812 198.726562 L 264.585938 207.082031 C 276.667969 210.585938 282.527344 214.816406 283.136719 217.492188 C 265.855469 222.753906 240.617188 226.648438 209.25 226.648438 C 177.882812 226.648438 152.648438 222.753906 135.367188 217.496094 C 135.777344 215.832031 138.394531 213.125 144.78125 210.320312 C 152.109375 207.101562 162.574219 204.488281 175.042969 202.769531 L 173.855469 194.152344 C 160.601562 195.980469 149.339844 198.816406 141.285156 202.355469 C 133.347656 205.835938 128.601562 209.964844 127.113281 214.65625 C 115.488281 210.117188 109.203125 204.976562 109.203125 200.550781 C 109.203125 198.714844 110.699219 192.199219 129.929688 185.359375 C 144.578125 180.144531 165.117188 176.503906 187.765625 175.105469 L 187.230469 166.417969 C 163.792969 167.867188 142.40625 171.683594 127.011719 177.160156 C 105.101562 184.957031 100.503906 194.183594 100.503906 200.550781 C 100.503906 209.75 102.195312 218.761719 105.527344 227.339844 L 114.332031 249.972656 L 122.4375 246.820312 L 113.636719 224.183594 C 112.636719 221.613281 111.808594 219 111.144531 216.347656 C 115.636719 219.347656 121.515625 222.089844 128.734375 224.53125 C 132.292969 229.722656 140.320312 234.074219 152.71875 237.519531 C 167.875 241.726562 187.953125 244.046875 209.25 244.046875 C 230.546875 244.046875 250.621094 241.726562 265.777344 237.519531 C 278.179688 234.074219 286.203125 229.722656 289.765625 224.53125 C 296.980469 222.089844 302.859375 219.347656 307.351562 216.347656 C 306.6875 219 305.859375 221.613281 304.859375 224.183594 L 289.925781 262.585938 C 288.507812 266.234375 286.558594 269.636719 284.136719 272.699219 L 290.953125 278.101562 C 293.917969 274.359375 296.300781 270.199219 298.03125 265.738281 L 312.96875 227.339844 C 316.304688 218.761719 317.992188 209.75 317.992188 200.550781 C 317.992188 184.828125 291.363281 176.253906 275.484375 172.542969 " fill-opacity="1" fill-rule="nonzero"/><path fill="#db99a8" d="M 250.074219 139.710938 L 284.695312 83.054688 C 286.261719 80.492188 289.015625 79.074219 291.828125 79.074219 C 293.285156 79.074219 294.761719 79.457031 296.09375 80.257812 C 298.011719 81.40625 299.363281 83.238281 299.898438 85.414062 C 300.429688 87.585938 300.082031 89.835938 298.917969 91.746094 L 264.292969 148.398438 C 261.917969 152.285156 256.804688 153.542969 252.898438 151.199219 C 250.980469 150.046875 249.628906 148.21875 249.09375 146.042969 C 248.558594 143.871094 248.910156 141.621094 250.074219 139.710938 Z M 240.957031 138.875 C 219.71875 146.550781 201.882812 162.367188 191.773438 182.589844 L 179.257812 207.621094 L 187.039062 211.507812 L 199.558594 186.480469 C 208.15625 169.273438 222.960938 155.601562 240.695312 148.300781 C 240.914062 149.15625 241.195312 149.984375 241.539062 150.78125 C 229.539062 160.882812 218.757812 174.652344 210.9375 189.945312 L 198.132812 214.820312 L 205.867188 218.800781 L 218.679688 193.914062 C 225.9375 179.722656 235.875 166.980469 246.90625 157.636719 C 247.390625 158 247.894531 158.34375 248.421875 158.660156 C 249.007812 159.011719 249.605469 159.3125 250.21875 159.585938 C 248.476562 162.847656 246.652344 166.25 244.769531 169.765625 C 240.027344 178.621094 235.121094 187.777344 230.109375 197.304688 L 220.242188 215.910156 L 227.929688 219.984375 L 237.800781 201.367188 C 242.804688 191.859375 247.703125 182.714844 252.4375 173.875 C 254.6875 169.675781 256.847656 165.640625 258.886719 161.816406 C 259.757812 176.738281 256.476562 191.46875 249.277344 204.664062 L 243.167969 215.863281 L 250.804688 220.03125 L 256.914062 208.828125 C 265.472656 193.148438 269.054688 175.503906 267.300781 157.742188 C 269.027344 156.476562 270.535156 154.867188 271.71875 152.9375 L 306.339844 96.28125 C 308.726562 92.378906 309.4375 87.78125 308.347656 83.335938 C 307.253906 78.894531 304.492188 75.148438 300.570312 72.796875 C 292.582031 68.003906 282.132812 70.570312 277.273438 78.519531 L 242.652344 135.175781 C 241.929688 136.351562 241.367188 137.59375 240.957031 138.875 " fill-opacity="1" fill-rule="nonzero"/><g clip-path="url(#c9a8930bc2)"><path fill="#db99a8" d="M 262.59375 295.113281 C 262.359375 295.113281 262.121094 295.101562 261.894531 295.082031 L 260.542969 294.960938 C 261.136719 292.5625 261.445312 290.078125 261.445312 287.546875 C 261.445312 284.988281 261.125 282.503906 260.527344 280.128906 L 261.890625 280.007812 C 264.039062 279.816406 266.09375 280.507812 267.683594 281.960938 C 269.269531 283.410156 270.144531 285.394531 270.144531 287.546875 C 270.144531 291.71875 266.757812 295.113281 262.59375 295.113281 Z M 246.375 302.925781 C 242.269531 307.03125 236.8125 309.292969 230.996094 309.292969 L 126.132812 309.292969 C 131.785156 303.761719 135.300781 296.058594 135.300781 287.546875 C 135.300781 279.03125 131.785156 271.328125 126.132812 265.796875 L 230.996094 265.796875 C 242.988281 265.796875 252.746094 275.554688 252.746094 287.546875 C 252.746094 293.359375 250.484375 298.820312 246.375 302.925781 Z M 89.039062 302.445312 L 100.933594 301.363281 C 108.128906 300.710938 113.554688 294.769531 113.554688 287.546875 C 113.554688 280.320312 108.128906 274.378906 100.933594 273.726562 L 89.015625 272.644531 C 89.171875 272.480469 89.320312 272.324219 89.476562 272.164062 C 93.578125 268.058594 99.039062 265.796875 104.851562 265.796875 C 116.84375 265.796875 126.601562 275.554688 126.601562 287.546875 C 126.601562 299.535156 116.84375 309.292969 104.851562 309.292969 C 98.808594 309.292969 93.097656 306.722656 89.039062 302.445312 Z M 73.957031 295.082031 C 71.8125 295.277344 69.757812 294.582031 68.167969 293.132812 C 66.578125 291.683594 65.703125 289.695312 65.703125 287.546875 C 65.703125 285.394531 66.578125 283.40625 68.167969 281.957031 C 69.582031 280.667969 71.363281 279.976562 73.25 279.976562 C 73.484375 279.976562 73.71875 279.988281 73.957031 280.007812 L 100.144531 282.390625 C 102.828125 282.632812 104.851562 284.851562 104.851562 287.546875 C 104.851562 290.238281 102.828125 292.457031 100.144531 292.699219 L 100.148438 292.699219 Z M 273.550781 275.535156 C 270.183594 272.460938 265.648438 270.933594 261.105469 271.34375 L 257 271.71875 C 251.644531 262.957031 241.992188 257.097656 230.996094 257.097656 L 104.851562 257.097656 C 96.714844 257.097656 89.066406 260.265625 83.328125 266.011719 C 81.597656 267.734375 80.101562 269.648438 78.839844 271.71875 L 74.746094 271.347656 C 70.203125 270.933594 65.667969 272.457031 62.300781 275.53125 C 58.9375 278.609375 57.003906 282.984375 57.003906 287.546875 C 57.003906 292.105469 58.9375 296.484375 62.300781 299.558594 C 65.308594 302.300781 69.242188 303.8125 73.28125 303.8125 C 73.765625 303.8125 74.257812 303.789062 74.746094 303.746094 L 78.839844 303.371094 C 84.324219 312.34375 94.226562 317.992188 104.851562 317.992188 L 230.996094 317.992188 C 239.136719 317.992188 246.78125 314.824219 252.527344 309.078125 C 254.265625 307.335938 255.765625 305.421875 257.019531 303.375 L 261.113281 303.746094 C 261.601562 303.789062 262.101562 303.8125 262.59375 303.8125 C 271.554688 303.8125 278.84375 296.515625 278.84375 287.546875 C 278.84375 282.988281 276.914062 278.613281 273.550781 275.535156 " fill-opacity="1" fill-rule="nonzero"/></g></svg>