<svg width="40" height="40" viewBox="0 0 40 40" fill="none" xmlns="http://www.w3.org/2000/svg">
<circle cx="20" cy="20" r="20" fill="#8B5CF6"/>
<svg width="24" height="24" viewBox="0 0 24 24" fill="none" xmlns="http://www.w3.org/2000/svg" x="8" y="8">
<path d="M12 2C13.1 2 14 2.9 14 4V10C14 11.1 13.1 12 12 12C10.9 12 10 11.1 10 10V4C10 2.9 10.9 2 12 2Z" fill="white"/>
<path d="M16 16C16 17.1 15.1 18 14 18H10C8.9 18 8 17.1 8 16V12C8 10.9 8.9 10 10 10H14C15.1 10 16 10.9 16 12V16Z" fill="white"/>
</svg>
</svg>
